# Blender 4.2.9 LTS
# www.blender.org
o 01_Carpet_01
v 1.203046 0.008210 -0.908035
v 1.200263 0.008204 0.916074
v -1.198474 0.008205 -0.913826
v -1.201258 0.008215 0.910283
v 1.206036 0.007745 -0.908252
v 1.205547 0.008535 -0.909672
v 1.204899 0.008707 -0.910757
v 1.204137 0.008646 -0.911237
v 1.203063 0.007954 -0.911814
v -1.198457 0.007900 -0.917693
v -1.199738 0.007539 -0.919183
v -1.200975 0.007222 -0.919285
v -1.201663 0.007246 -0.918039
v -1.201644 0.007833 -0.916580
v -1.204654 0.008067 0.907529
v -1.204305 0.008524 0.908768
v -1.204337 0.008583 0.909806
v -1.204047 0.008001 0.911434
v -1.203079 0.007959 0.913460
v 1.198441 0.007930 0.919339
v 1.199828 0.007854 0.919379
v 1.201537 0.007819 0.918334
v 1.202906 0.007616 0.917135
v 1.203026 0.007936 0.915857
v 1.207765 0.006672 -0.908933
v 1.206775 0.007220 -0.911270
v 1.206459 0.005882 -0.913365
v 1.205368 0.006672 -0.915508
v 1.203264 0.006424 -0.915835
v -1.198255 0.007656 -0.921845
v -1.200509 0.008259 -0.922079
v -1.203116 0.006888 -0.919252
v -1.205268 0.005830 -0.917639
v -1.205145 0.006443 -0.915140
v -1.208615 0.005905 0.908967
v -1.206539 0.005755 0.911457
v -1.205553 0.006448 0.914066
v -1.203722 0.006193 0.914060
v -1.201794 0.007326 0.915285
v 1.199725 0.007054 0.921294
v 1.202155 0.008161 0.920632
v 1.204022 0.006905 0.919953
v 1.205504 0.006911 0.917827
v 1.204295 0.006551 0.915175
v 1.210094 0.006970 -0.908509
v 1.209788 0.006396 -0.912073
v 1.206883 0.004596 -0.914677
v 1.205618 0.006421 -0.916684
v 1.203126 0.006239 -0.917395
v -1.198393 0.004221 -0.923729
v -1.201596 0.005914 -0.923181
v -1.205161 0.004605 -0.920731
v -1.205481 0.006068 -0.918516
v -1.206308 0.006035 -0.915157
v -1.210011 0.006505 0.908950
v -1.209430 0.005614 0.912102
v -1.207251 0.006164 0.915412
v -1.205804 0.005867 0.916644
v -1.203016 0.004835 0.917390
v 1.198503 0.005669 0.923724
v 1.201410 0.005284 0.923141
v 1.204793 0.005829 0.921465
v 1.205839 0.006230 0.918544
v 1.206390 0.005447 0.915598
v 1.210605 0.005705 -0.909665
v 1.209834 0.005224 -0.913062
v 1.209163 0.003617 -0.914828
v 1.205276 0.004955 -0.917591
v 1.202309 0.004689 -0.918171
v -1.199210 0.002238 -0.924351
v -1.202408 0.004529 -0.923798
v -1.203746 0.003129 -0.922118
v -1.206570 0.005165 -0.918132
v -1.207026 0.004219 -0.914830
v -1.210616 0.004955 0.909277
v -1.209853 0.004271 0.913024
v -1.208856 0.004729 0.915008
v -1.205954 0.004944 0.917324
v -1.203161 0.003074 0.918171
v 1.198358 0.004190 0.924351
v 1.201731 0.003243 0.923531
v 1.204052 0.004366 0.922297
v 1.206552 0.004503 0.918094
v 1.207015 0.003535 0.914443
v 1.210607 0.005703 -0.909661
v 1.209836 0.005222 -0.913058
v 1.209160 0.003615 -0.914823
v 1.205275 0.004953 -0.917587
v 1.202310 0.004687 -0.918174
v -1.199209 0.002236 -0.924347
v -1.202409 0.004527 -0.923800
v -1.203748 0.003127 -0.922120
v -1.206568 0.005163 -0.918134
v -1.207024 0.004217 -0.914833
v -1.210613 0.004953 0.909275
v -1.209852 0.004269 0.913022
v -1.208853 0.004726 0.915006
v -1.205950 0.004942 0.917321
v -1.203158 0.003072 0.918176
v 1.198362 0.004188 0.924349
v 1.201734 0.003241 0.923535
v 1.204056 0.004364 0.922302
v 1.206553 0.004501 0.918098
v 1.207017 0.003533 0.914446
v 1.210608 0.005701 -0.909658
v 1.209839 0.005220 -0.913053
v 1.209158 0.003613 -0.914818
v 1.205274 0.004951 -0.917582
v 1.202311 0.004685 -0.918176
v -1.199208 0.002234 -0.924343
v -1.202410 0.004525 -0.923803
v -1.203750 0.003125 -0.922122
v -1.206566 0.005161 -0.918136
v -1.207023 0.004215 -0.914835
v -1.210611 0.004951 0.909272
v -1.209851 0.004267 0.913020
v -1.208849 0.004724 0.915004
v -1.205947 0.004940 0.917319
v -1.203154 0.003070 0.918180
v 1.198365 0.004186 0.924346
v 1.201738 0.003239 0.923540
v 1.204059 0.004362 0.922307
v 1.206554 0.004499 0.918102
v 1.207020 0.003531 0.914450
v 1.210121 0.003826 -0.907720
v 1.209081 0.003252 -0.911549
v 1.208376 0.001452 -0.915520
v 1.205106 0.003276 -0.917045
v 1.201871 0.003095 -0.917666
v -1.199649 0.001077 -0.923716
v -1.202110 0.002770 -0.922868
v -1.203668 0.001460 -0.921639
v -1.206187 0.002924 -0.918408
v -1.206280 0.002890 -0.914706
v -1.210127 0.003360 0.909401
v -1.209702 0.002470 0.912211
v -1.208401 0.003020 0.914497
v -1.205002 0.002723 0.916960
v -1.201974 0.001690 0.917409
v 1.199545 0.002525 0.923458
v 1.202214 0.002140 0.922783
v 1.203643 0.002685 0.920615
v 1.205566 0.003086 0.919070
v 1.206274 0.002303 0.916387
v 1.207456 0.000865 -0.908389
v 1.208533 0.001413 -0.911019
v 1.206261 0.000076 -0.913874
v 1.204635 0.000866 -0.915664
v 1.202845 0.000618 -0.915126
v -1.198673 0.001849 -0.922073
v -1.201246 0.002453 -0.920930
v -1.203315 0.001081 -0.919551
v -1.203509 0.000024 -0.917961
v -1.205452 0.000637 -0.915515
v -1.208439 0.000099 0.908594
v -1.207095 -0.000051 0.911130
v -1.207070 0.000642 0.913764
v -1.204896 0.000386 0.915208
v -1.202507 0.001520 0.915056
v 1.199011 0.001248 0.922003
v 1.200984 0.002355 0.920474
v 1.202505 0.001099 0.919441
v 1.204947 0.001105 0.918072
v 1.204469 0.000745 0.915720
v 1.206419 0.000160 -0.907808
v 1.206788 0.000950 -0.909284
v 1.205907 0.001122 -0.911075
v 1.204341 0.001061 -0.912563
v 1.202955 0.000369 -0.912335
v -1.198566 0.000315 -0.917996
v -1.199540 -0.000046 -0.917512
v -1.199971 -0.000364 -0.917547
v -1.200424 -0.000339 -0.916916
v -1.201261 0.000248 -0.915630
v -1.205565 0.000482 0.908475
v -1.204480 0.000939 0.909888
v -1.203800 0.000997 0.911543
v -1.203397 0.000416 0.913106
v -1.202473 0.000374 0.913158
v 1.199047 0.000345 0.918819
v 1.200484 0.000269 0.918055
v 1.202078 0.000233 0.918015
v 1.202732 0.000031 0.917519
v 1.202116 0.000351 0.916298
v -1.202788 0.000005 0.909614
v -1.198044 -0.000005 -0.914490
v 1.198732 -0.000005 0.915324
v 1.203476 0.000000 -0.908781
vn -0.0000 1.0000 -0.0000
vn 0.0001 1.0000 -0.0002
vn 0.3428 0.9394 0.0007
vn 0.4468 0.8942 -0.0258
vn 0.0002 1.0000 -0.0001
vn 0.4601 0.8584 -0.2271
vn 0.0001 1.0000 -0.0001
vn 0.4601 0.8584 -0.2270
vn 0.1109 0.9483 -0.2975
vn 0.0002 1.0000 -0.0002
vn 0.1109 0.9482 -0.2976
vn 0.0004 0.9893 -0.1461
vn 0.0003 0.9893 -0.1461
vn 0.0005 0.9893 -0.1459
vn -0.0001 1.0000 -0.0002
vn -0.0001 1.0000 -0.0001
vn 0.0004 0.9893 -0.1459
vn -0.1207 0.9882 0.0947
vn -0.2203 0.9721 0.0807
vn -0.2203 0.9721 0.0806
vn -0.2559 0.9504 -0.1765
vn -0.2560 0.9504 -0.1765
vn -0.2786 0.9604 -0.0007
vn -0.2785 0.9604 -0.0007
vn -0.2787 0.9604 -0.0003
vn -0.0001 1.0000 0.0001
vn -0.5172 0.8482 0.1145
vn -0.3852 0.8894 0.2460
vn -0.0001 1.0000 0.0002
vn -0.3852 0.8895 0.2460
vn -0.2527 0.8766 0.4095
vn -0.2528 0.8766 0.4095
vn -0.0007 0.9807 0.1956
vn -0.0005 0.9807 0.1956
vn 0.0002 1.0000 0.0002
vn 0.0612 0.9951 0.0778
vn 0.2123 0.9770 0.0211
vn 0.2123 0.9770 0.0210
vn 0.2905 0.9549 0.0618
vn 0.2906 0.9549 0.0619
vn 0.3427 0.9395 0.0005
vn 0.3426 0.9395 0.0005
vn 0.0002 1.0000 0.0001
vn 0.4024 0.9155 0.0010
vn 0.2955 0.9135 -0.2796
vn 0.4468 0.8943 -0.0258
vn 0.2956 0.9135 -0.2796
vn 0.4999 0.7686 -0.3991
vn 0.4601 0.8583 -0.2270
vn 0.5000 0.7686 -0.3990
vn 0.3261 0.8959 -0.3017
vn 0.0011 0.9071 -0.4210
vn 0.0011 0.9071 -0.4209
vn 0.0013 0.9070 -0.4212
vn 0.0005 0.9893 -0.1460
vn 0.0013 0.9069 -0.4213
vn -0.2723 0.8585 -0.4346
vn -0.1206 0.9882 0.0947
vn -0.2723 0.8585 -0.4345
vn -0.4884 0.8502 -0.1968
vn -0.1207 0.9882 0.0948
vn -0.4883 0.8502 -0.1968
vn -0.3468 0.9178 -0.1932
vn -0.3468 0.9178 -0.1933
vn -0.3181 0.9480 -0.0008
vn -0.3182 0.9480 -0.0007
vn -0.3181 0.9481 -0.0002
vn -0.3180 0.9481 -0.0001
vn -0.3688 0.9250 0.0914
vn -0.5172 0.8481 0.1145
vn -0.2996 0.9465 0.1199
vn -0.3851 0.8895 0.2460
vn -0.2248 0.8713 0.4363
vn -0.2249 0.8713 0.4363
vn -0.0018 0.8394 0.5435
vn -0.0007 0.9807 0.1957
vn -0.0018 0.8394 0.5434
vn -0.0014 0.8394 0.5435
vn -0.0015 0.8394 0.5435
vn 0.1727 0.8587 0.4826
vn 0.1727 0.8586 0.4826
vn 0.3641 0.8822 0.2986
vn 0.3641 0.8822 0.2985
vn 0.4686 0.8829 0.0299
vn 0.2905 0.9549 0.0619
vn 0.2906 0.9549 0.0618
vn 0.4687 0.8829 0.0299
vn 0.4027 0.9153 0.0007
vn 0.3427 0.9394 0.0005
vn 0.4027 0.9153 0.0008
vn 0.3427 0.9394 0.0006
vn 0.4023 0.9155 0.0010
vn 0.5826 0.8128 0.0014
vn 0.3013 0.8550 -0.4221
vn 0.4468 0.7379 -0.5059
vn 0.4999 0.7687 -0.3991
vn 0.4468 0.7378 -0.5059
vn 0.5106 0.7368 -0.4433
vn 0.3260 0.8959 -0.3017
vn 0.5106 0.7367 -0.4433
vn 0.0020 0.5605 -0.8282
vn 0.0021 0.5601 -0.8284
vn 0.0021 0.5600 -0.8285
vn -0.3364 0.5262 -0.7810
vn -0.2724 0.8585 -0.4345
vn -0.6726 0.5585 -0.4854
vn -0.6726 0.5585 -0.4855
vn -0.6836 0.6724 -0.2838
vn -0.6837 0.6724 -0.2838
vn -0.6333 0.7739 -0.0015
vn -0.3181 0.9481 -0.0007
vn -0.6332 0.7740 -0.0015
vn -0.6327 0.7744 -0.0008
vn -0.3181 0.9480 -0.0044
vn -0.3180 0.9481 -0.0002
vn -0.6327 0.7744 -0.0009
vn -0.3954 0.9098 0.1264
vn -0.3954 0.9098 0.1263
vn -0.3494 0.9113 0.2177
vn -0.3495 0.9113 0.2177
vn -0.1689 0.8091 0.5629
vn -0.2250 0.8713 0.4362
vn -0.0022 0.6416 0.7670
vn -0.0022 0.6417 0.7670
vn -0.0019 0.6414 0.7672
vn -0.0014 0.8394 0.5436
vn 0.2700 0.5471 0.7923
vn 0.2701 0.5471 0.7923
vn 0.5952 0.4604 0.6586
vn 0.5953 0.4604 0.6586
vn 0.8732 0.4495 0.1884
vn 0.4686 0.8829 0.0300
vn 0.5833 0.8122 0.0015
vn 0.5826 0.8128 0.0015
vn 0.4023 0.9155 0.0009
vn 0.4026 0.9154 0.0008
vn 0.9418 0.3360 0.0019
vn 0.5898 0.5936 -0.5476
vn 0.5898 0.5936 -0.5475
vn 0.4924 0.6905 -0.5299
vn 0.4469 0.7378 -0.5059
vn 0.4924 0.6905 -0.5298
vn 0.4975 0.6109 -0.6158
vn 0.4975 0.6109 -0.6159
vn 0.0023 0.3666 -0.9304
vn 0.0020 0.5604 -0.8282
vn 0.0023 0.3665 -0.9304
vn 0.0022 0.3663 -0.9305
vn 0.0021 0.3664 -0.9304
vn -0.3236 0.3439 -0.8815
vn -0.3365 0.5262 -0.7810
vn -0.3236 0.3440 -0.8814
vn -0.7703 0.2299 -0.5948
vn -0.6727 0.5584 -0.4855
vn -0.6727 0.5585 -0.4854
vn -0.7704 0.2298 -0.5947
vn -0.8901 0.3804 -0.2510
vn -0.8901 0.3805 -0.2509
vn -0.9312 0.3644 -0.0021
vn -0.9313 0.3643 -0.0021
vn -0.9313 0.3643 -0.0016
vn -0.9313 0.3642 -0.0015
vn -0.8062 0.5110 0.2981
vn -0.6696 0.5595 0.4884
vn -0.3494 0.9113 0.2178
vn -0.6696 0.5595 0.4885
vn -0.2636 0.5018 0.8239
vn -0.1689 0.8090 0.5629
vn -0.2635 0.5018 0.8239
vn -0.0026 0.3989 0.9170
vn -0.0026 0.3988 0.9170
vn -0.0022 0.3987 0.9171
vn -0.0021 0.3986 0.9171
vn 0.3182 0.2746 0.9074
vn 0.6986 0.1605 0.6973
vn 0.5953 0.4603 0.6586
vn 0.6987 0.1605 0.6972
vn 0.9445 0.1826 0.2731
vn 0.8732 0.4495 0.1883
vn 0.9445 0.1827 0.2730
vn 0.9419 0.3359 0.0024
vn 0.5833 0.8123 0.0015
vn 0.9418 0.3362 0.0024
vn 0.9418 0.3362 0.0019
vn 0.9418 0.3361 0.0019
vn 0.6873 0.7264 0.0018
vn 0.9848 -0.0038 -0.1735
vn 0.9848 -0.0038 -0.1734
vn 0.3399 -0.8622 -0.3755
vn 0.3399 -0.8622 -0.3756
vn 0.0280 -0.8468 -0.5312
vn 0.4976 0.6109 -0.6158
vn 0.0031 -0.3967 -0.9180
vn 0.0022 0.3666 -0.9304
vn 0.4974 0.6110 -0.6159
vn 0.0030 -0.3967 -0.9180
vn 0.0022 -0.3964 -0.9181
vn 0.0021 -0.3964 -0.9181
vn -0.7629 0.2781 -0.5837
vn 0.0021 0.3665 -0.9304
vn -0.3237 0.3440 -0.8814
vn -0.7629 0.2780 -0.5837
vn -0.5887 0.7319 -0.3431
vn -0.7703 0.2298 -0.5948
vn -0.5887 0.7319 -0.3432
vn -0.8243 0.1067 -0.5560
vn -0.8901 0.3804 -0.2509
vn -0.6898 -0.7240 -0.0016
vn -0.6895 -0.7243 -0.0010
vn -0.9313 0.3644 -0.0021
vn -0.9313 0.3642 -0.0016
vn -0.6215 -0.7645 0.1710
vn -0.8063 0.5110 0.2981
vn -0.3021 -0.8640 0.4028
vn -0.2612 -0.8937 0.3648
vn -0.2611 -0.8937 0.3648
vn -0.0026 0.4129 0.9108
vn -0.0025 0.3990 0.9170
vn -0.2635 0.5017 0.8239
vn -0.0025 0.4129 0.9108
vn -0.0020 0.4136 0.9105
vn -0.0022 0.3986 0.9171
vn -0.0023 0.3987 0.9171
vn -0.0021 0.4135 0.9105
vn -0.0025 0.8618 0.5073
vn -0.0026 0.8618 0.5073
vn 0.1362 0.9228 0.3605
vn 0.6987 0.1604 0.6972
vn 0.1362 0.9227 0.3605
vn 0.5441 0.8290 0.1295
vn 0.6871 0.7266 0.0020
vn 0.9419 0.3360 0.0023
vn 0.6871 0.7266 0.0021
vn 0.9304 -0.3665 0.0011
vn 0.9128 -0.3969 -0.0967
vn 0.9848 -0.0037 -0.1735
vn 0.9128 -0.3968 -0.0967
vn 0.7913 -0.2358 -0.5641
vn 0.3839 -0.1833 -0.9050
vn 0.3839 -0.1834 -0.9050
vn 0.0030 -0.3830 -0.9238
vn 0.0020 -0.3831 -0.9237
vn 0.0022 -0.3965 -0.9180
vn -0.4648 -0.3925 -0.7937
vn -0.4648 -0.3926 -0.7936
vn -0.7419 -0.2039 -0.6387
vn -0.9048 -0.2048 -0.3733
vn -0.8243 0.1068 -0.5560
vn -0.9048 -0.2047 -0.3733
vn -0.9215 -0.3883 -0.0020
vn -0.9216 -0.3882 -0.0015
vn -0.9197 -0.2636 0.2911
vn -0.9197 -0.2636 0.2910
vn -0.6520 -0.3570 0.6689
vn -0.6521 -0.3569 0.6689
vn -0.5129 -0.4116 0.7533
vn -0.5129 -0.4117 0.7533
vn -0.0025 -0.4794 0.8776
vn -0.0025 -0.4795 0.8775
vn -0.0019 -0.4794 0.8776
vn -0.0021 0.4136 0.9105
vn -0.0018 -0.4793 0.8776
vn 0.4583 -0.4866 0.7437
vn -0.0029 0.8595 0.5111
vn 0.7161 -0.4543 0.5300
vn 0.7161 -0.4543 0.5299
vn 0.8319 -0.3890 0.3956
vn 0.8319 -0.3891 0.3957
vn 0.9305 -0.3662 0.0020
vn 0.9306 -0.3662 0.0020
vn 0.9304 -0.3664 0.0010
vn 0.9304 -0.3665 0.0010
vn 0.8010 -0.5987 0.0010
vn 0.8563 -0.5139 -0.0515
vn 0.9128 -0.3968 -0.0966
vn 0.6760 -0.5360 -0.5056
vn 0.7913 -0.2358 -0.5642
vn 0.6761 -0.5360 -0.5056
vn 0.2403 -0.4540 -0.8580
vn 0.3840 -0.1833 -0.9050
vn 0.2402 -0.4540 -0.8580
vn 0.0022 -0.7664 -0.6424
vn 0.0030 -0.3829 -0.9238
vn 0.0021 -0.7663 -0.6424
vn 0.0014 -0.7669 -0.6418
vn 0.0027 -0.3829 -0.9238
vn -0.2386 -0.8647 -0.4420
vn -0.5473 -0.6249 -0.5567
vn -0.7419 -0.2039 -0.6388
vn -0.8376 -0.4467 -0.3144
vn -0.8377 -0.4467 -0.3143
vn -0.9141 -0.4055 -0.0021
vn -0.9216 -0.3882 -0.0020
vn -0.9141 -0.4056 -0.0021
vn -0.9140 -0.4056 -0.0015
vn -0.9216 -0.3881 -0.0015
vn -0.9216 -0.3881 -0.0019
vn -0.9140 -0.4056 -0.0014
vn -0.8143 -0.5208 0.2562
vn -0.6288 -0.5002 0.5953
vn -0.6520 -0.3569 0.6689
vn -0.4228 -0.5680 0.7062
vn -0.5128 -0.4117 0.7533
vn -0.4228 -0.5680 0.7061
vn -0.0018 -0.7731 0.6343
vn -0.0026 -0.4794 0.8776
vn -0.0017 -0.7731 0.6343
vn -0.0013 -0.7732 0.6342
vn -0.0019 -0.4792 0.8777
vn -0.0019 -0.4793 0.8776
vn 0.3238 -0.8051 0.4970
vn 0.4584 -0.4866 0.7437
vn 0.3239 -0.8051 0.4970
vn 0.5471 -0.6426 0.5364
vn 0.7160 -0.4543 0.5300
vn 0.5471 -0.6426 0.5363
vn 0.7493 -0.5136 0.4180
vn 0.8319 -0.3890 0.3957
vn 0.7494 -0.5135 0.4180
vn 0.8010 -0.5987 0.0015
vn 0.9305 -0.3662 0.0021
vn 0.8010 -0.5986 0.0011
vn 0.9304 -0.3664 0.0011
vn 0.9306 -0.3661 0.0021
vn 0.8010 -0.5987 0.0011
vn 0.5818 -0.8133 0.0009
vn 0.6368 -0.7709 0.0129
vn 0.8563 -0.5140 -0.0515
vn 0.6369 -0.7709 0.0129
vn 0.2793 -0.9413 -0.1896
vn 0.2794 -0.9413 -0.1896
vn 0.0407 -0.8702 -0.4909
vn 0.2402 -0.4541 -0.8580
vn 0.0406 -0.8703 -0.4909
vn 0.0009 -0.9535 -0.3014
vn 0.0021 -0.7663 -0.6425
vn 0.0008 -0.9535 -0.3014
vn 0.0004 -0.9536 -0.3011
vn 0.0014 -0.7669 -0.6417
vn 0.0021 -0.7664 -0.6424
vn -0.0302 -0.9426 -0.3326
vn -0.0568 -0.8848 -0.4625
vn -0.5473 -0.6250 -0.5567
vn -0.5082 -0.8451 -0.1656
vn -0.8376 -0.4467 -0.3143
vn -0.5083 -0.8451 -0.1656
vn -0.4995 -0.8663 -0.0010
vn -0.4993 -0.8664 -0.0009
vn -0.9140 -0.4057 -0.0015
vn -0.9140 -0.4056 -0.0021
vn -0.9140 -0.4057 -0.0014
vn -0.4994 -0.8664 -0.0009
vn -0.3675 -0.9140 0.1721
vn -0.8143 -0.5209 0.2562
vn -0.8142 -0.5209 0.2562
vn -0.3675 -0.9139 0.1722
vn -0.3341 -0.8827 0.3306
vn -0.6288 -0.5003 0.5953
vn -0.6287 -0.5002 0.5953
vn -0.3340 -0.8827 0.3306
vn -0.1987 -0.8796 0.4323
vn -0.1986 -0.8796 0.4323
vn -0.0009 -0.9305 0.3662
vn -0.0006 -0.9306 0.3661
vn -0.0013 -0.7732 0.6341
vn -0.0005 -0.9306 0.3660
vn 0.2221 -0.9030 0.3679
vn 0.2108 -0.8144 0.5406
vn 0.5471 -0.6427 0.5364
vn 0.2108 -0.8144 0.5407
vn 0.5145 -0.7874 0.3395
vn 0.7493 -0.5136 0.4181
vn 0.5816 -0.8135 0.0010
vn 0.8009 -0.5988 0.0015
vn 0.5816 -0.8134 0.0010
vn 0.5818 -0.8133 0.0008
vn 0.8009 -0.5987 0.0010
vn 0.1640 -0.9865 0.0002
vn 0.1719 -0.9808 -0.0922
vn 0.1719 -0.9808 -0.0921
vn 0.0147 -0.9996 0.0243
vn 0.2794 -0.9413 -0.1895
vn 0.0856 -0.9961 -0.0228
vn 0.0407 -0.8703 -0.4909
vn 0.0407 -0.8702 -0.4910
vn 0.0005 -0.9846 -0.1747
vn 0.0002 -0.9846 -0.1749
vn 0.0004 -0.9536 -0.3010
vn -0.0056 -0.8679 -0.4966
vn -0.0303 -0.9426 -0.3326
vn -0.0056 -0.8679 -0.4967
vn 0.1004 -0.8522 -0.5136
vn 0.1004 -0.8522 -0.5135
vn -0.1049 -0.9936 0.0421
vn -0.5082 -0.8452 -0.1656
vn -0.1048 -0.9936 0.0421
vn -0.0563 -0.9984 0.0001
vn -0.0561 -0.9984 -0.0001
vn -0.4996 -0.8663 -0.0010
vn 0.1350 -0.9852 0.1057
vn -0.0390 -0.9992 -0.0065
vn -0.0390 -0.9992 -0.0066
vn -0.0734 -0.9972 0.0143
vn -0.0735 -0.9972 0.0143
vn -0.0005 -0.9749 0.2227
vn -0.0008 -0.9305 0.3662
vn -0.0004 -0.9749 0.2228
vn -0.0004 -0.9749 0.2227
vn 0.1839 -0.9056 0.3821
vn 0.2221 -0.9029 0.3679
vn 0.1838 -0.9057 0.3821
vn 0.0090 -0.8968 0.4423
vn 0.2144 -0.9718 0.0979
vn 0.5144 -0.7874 0.3395
vn 0.5144 -0.7875 0.3395
vn 0.1641 -0.9865 0.0003
vn 0.5816 -0.8135 0.0009
vn 0.0001 -1.0000 -0.0002
vn 0.0147 -0.9996 0.0242
vn -0.0001 -1.0000 -0.0002
vn 0.0003 -0.9846 -0.1749
vn -0.0002 -1.0000 -0.0002
vn 0.1003 -0.8522 -0.5135
vn 0.1004 -0.8521 -0.5136
vn -0.0002 -1.0000 0.0002
vn -0.0001 -1.0000 0.0002
vn -0.0389 -0.9992 -0.0065
vn -0.0734 -0.9972 0.0144
vn 0.0001 -1.0000 0.0002
vn 0.1839 -0.9057 0.3821
vn 0.1839 -0.9057 0.3820
vn 0.0090 -0.8968 0.4422
vn 0.0090 -0.8969 0.4422
vn 0.2144 -0.9718 0.0980
vn 0.1640 -0.9865 0.0003
vn -0.0000 -1.0000 -0.0000
vn -0.0002 -1.0000 0.0003
vt 0.996877 0.991174
vt 0.005015 0.994307
vt 0.003865 0.007610
vt 0.995727 0.004477
vt 0.998111 0.991291
vt 0.997910 0.992059
vt 0.997642 0.992646
vt 0.997327 0.992906
vt 0.996883 0.993218
vt 0.005022 0.996398
vt 0.004493 0.997204
vt 0.003982 0.997260
vt 0.003698 0.996585
vt 0.003706 0.995796
vt 0.002462 0.009100
vt 0.002607 0.008430
vt 0.002594 0.007868
vt 0.002713 0.006988
vt 0.003113 0.005892
vt 0.994974 0.002711
vt 0.995547 0.002689
vt 0.996253 0.003255
vt 0.996818 0.003903
vt 0.996868 0.004595
vt 0.998826 0.991660
vt 0.998417 0.992924
vt 0.998286 0.994057
vt 0.997836 0.995216
vt 0.996967 0.995393
vt 0.005105 0.998644
vt 0.004174 0.998771
vt 0.003098 0.997242
vt 0.002209 0.996369
vt 0.002260 0.995018
vt 0.000827 0.008322
vt 0.001684 0.006975
vt 0.002091 0.005564
vt 0.002847 0.005567
vt 0.003644 0.004905
vt 0.995505 0.001653
vt 0.996509 0.002012
vt 0.997280 0.002379
vt 0.997892 0.003529
vt 0.997392 0.004964
vt 0.999787 0.991430
vt 0.999661 0.993358
vt 0.998461 0.994767
vt 0.997939 0.995852
vt 0.996910 0.996237
vt 0.005049 0.999663
vt 0.003725 0.999367
vt 0.002253 0.998042
vt 0.002121 0.996844
vt 0.001780 0.995027
vt 0.000250 0.008331
vt 0.000490 0.006626
vt 0.001390 0.004836
vt 0.001987 0.004169
vt 0.003139 0.003766
vt 0.995000 0.000339
vt 0.996201 0.000655
vt 0.997598 0.001561
vt 0.998030 0.003141
vt 0.998258 0.004735
vt 0.999999 0.992055
vt 0.999680 0.993893
vt 0.999403 0.994848
vt 0.997798 0.996343
vt 0.996572 0.996657
vt 0.004711 1.000000
vt 0.003390 0.999701
vt 0.002838 0.998792
vt 0.001671 0.996636
vt 0.001483 0.994850
vt 0.000000 0.008154
vt 0.000315 0.006127
vt 0.000727 0.005054
vt 0.001926 0.003802
vt 0.003079 0.003343
vt 0.994940 0.000000
vt 0.996333 0.000444
vt 0.997292 0.001111
vt 0.998324 0.003385
vt 0.998516 0.005360
vt 0.999999 0.992054
vt 0.999681 0.993891
vt 0.999402 0.994846
vt 0.997797 0.996341
vt 0.996573 0.996658
vt 0.004711 0.999998
vt 0.003390 0.999702
vt 0.002837 0.998793
vt 0.001672 0.996637
vt 0.001484 0.994851
vt 0.000001 0.008156
vt 0.000316 0.006129
vt 0.000728 0.005055
vt 0.001927 0.003803
vt 0.003080 0.003341
vt 0.994942 0.000001
vt 0.996335 0.000441
vt 0.997293 0.001108
vt 0.998325 0.003382
vt 0.998517 0.005358
vt 1.000000 0.992052
vt 0.999682 0.993888
vt 0.999401 0.994843
vt 0.997797 0.996338
vt 0.996573 0.996659
vt 0.004712 0.999995
vt 0.003389 0.999703
vt 0.002836 0.998794
vt 0.001673 0.996638
vt 0.001484 0.994853
vt 0.000002 0.008157
vt 0.000316 0.006130
vt 0.000730 0.005057
vt 0.001929 0.003804
vt 0.003082 0.003339
vt 0.994943 0.000003
vt 0.996336 0.000439
vt 0.997295 0.001106
vt 0.998325 0.003380
vt 0.998518 0.005356
vt 0.999799 0.991004
vt 0.999369 0.993075
vt 0.999078 0.995223
vt 0.997727 0.996048
vt 0.996391 0.996384
vt 0.004530 0.999657
vt 0.003514 0.999198
vt 0.002870 0.998533
vt 0.001829 0.996785
vt 0.001791 0.994783
vt 0.000202 0.008087
vt 0.000377 0.006567
vt 0.000915 0.005331
vt 0.002319 0.003998
vt 0.003569 0.003756
vt 0.995431 0.000483
vt 0.996533 0.000848
vt 0.997123 0.002021
vt 0.997917 0.002857
vt 0.998210 0.004308
vt 0.998698 0.991366
vt 0.999143 0.992788
vt 0.998204 0.994333
vt 0.997533 0.995300
vt 0.996794 0.995010
vt 0.004933 0.998768
vt 0.003870 0.998150
vt 0.003016 0.997404
vt 0.002936 0.996543
vt 0.002133 0.995220
vt 0.000899 0.008524
vt 0.001455 0.007152
vt 0.001464 0.005727
vt 0.002363 0.004946
vt 0.003349 0.005029
vt 0.995210 0.001270
vt 0.996025 0.002097
vt 0.996653 0.002656
vt 0.997662 0.003397
vt 0.997464 0.004669
vt 0.998270 0.991051
vt 0.998422 0.991850
vt 0.998058 0.992818
vt 0.997412 0.993623
vt 0.996839 0.993500
vt 0.004977 0.996562
vt 0.004575 0.996301
vt 0.004397 0.996320
vt 0.004210 0.995978
vt 0.003864 0.995283
vt 0.002086 0.008588
vt 0.002534 0.007824
vt 0.002815 0.006929
vt 0.002982 0.006083
vt 0.003363 0.006055
vt 0.995225 0.002993
vt 0.995818 0.003406
vt 0.996477 0.003427
vt 0.996747 0.003696
vt 0.996492 0.004356
vt 0.997054 0.991577
vt 0.005193 0.994666
vt 0.003233 0.007972
vt 0.995095 0.004883
s 0
f 1/1/1 3/2/1 4/3/1 2/4/1
f 1/1/2 5/5/3 6/6/4
f 1/1/5 6/6/4 7/7/6
f 1/1/7 7/7/8 8/8/9
f 1/1/10 8/8/11 9/9/12
f 9/9/13 10/10/14 3/2/15 1/1/10
f 3/2/16 10/10/17 11/11/18
f 3/2/15 11/11/18 12/12/19
f 3/2/15 12/12/20 13/13/21
f 3/2/16 13/13/22 14/14/23
f 14/14/24 15/15/25 4/3/26 3/2/15
f 4/3/26 15/15/25 16/16/27
f 4/3/26 16/16/27 17/17/28
f 4/3/29 17/17/30 18/18/31
f 4/3/29 18/18/32 19/19/33
f 19/19/33 20/20/34 2/4/35 4/3/29
f 2/4/35 20/20/34 21/21/36
f 2/4/35 21/21/36 22/22/37
f 2/4/35 22/22/38 23/23/39
f 2/4/35 23/23/40 24/24/41
f 24/24/42 5/5/3 1/1/5 2/4/43
f 5/5/3 25/25/44 26/26/45 6/6/46
f 6/6/46 26/26/47 27/27/48 7/7/8
f 7/7/49 27/27/50 28/28/51 8/8/9
f 8/8/9 28/28/51 29/29/52 9/9/12
f 29/29/53 30/30/54 10/10/55 9/9/12
f 10/10/14 30/30/56 31/31/57 11/11/58
f 31/31/59 32/32/60 12/12/19 11/11/61
f 12/12/19 32/32/62 33/33/63 13/13/21
f 13/13/22 33/33/64 34/34/65 14/14/23
f 34/34/66 35/35/67 15/15/25 14/14/23
f 15/15/25 35/35/68 36/36/69 16/16/27
f 16/16/70 36/36/69 37/37/71 17/17/30
f 17/17/72 37/37/71 38/38/73 18/18/31
f 18/18/31 38/38/74 39/39/75 19/19/76
f 39/39/77 40/40/78 20/20/34 19/19/76
f 20/20/34 40/40/79 41/41/80 21/21/36
f 21/21/36 41/41/81 42/42/82 22/22/38
f 22/22/37 42/42/83 43/43/84 23/23/85
f 23/23/86 43/43/87 44/44/88 24/24/89
f 44/44/90 25/25/44 5/5/3 24/24/91
f 25/25/92 45/45/93 46/46/94 26/26/45
f 26/26/45 46/46/94 47/47/95 27/27/96
f 27/27/48 47/47/97 48/48/98 28/28/99
f 28/28/51 48/48/100 49/49/101 29/29/52
f 49/49/101 50/50/102 30/30/56 29/29/52
f 30/30/54 50/50/103 51/51/104 31/31/105
f 31/31/59 51/51/104 52/52/106 32/32/62
f 32/32/62 52/52/107 53/53/108 33/33/64
f 33/33/63 53/53/109 54/54/110 34/34/111
f 54/54/112 55/55/113 35/35/68 34/34/114
f 35/35/115 55/55/116 56/56/117 36/36/69
f 36/36/69 56/56/118 57/57/119 37/37/71
f 37/37/71 57/57/120 58/58/121 38/38/73
f 38/38/122 58/58/121 59/59/123 39/39/75
f 59/59/124 60/60/125 40/40/126 39/39/75
f 40/40/126 60/60/125 61/61/127 41/41/81
f 41/41/81 61/61/128 62/62/129 42/42/82
f 42/42/82 62/62/130 63/63/131 43/43/132
f 43/43/87 63/63/131 64/64/133 44/44/90
f 64/64/133 45/45/134 25/25/135 44/44/136
f 45/45/134 65/65/137 66/66/138 46/46/94
f 46/46/94 66/66/139 67/67/140 47/47/97
f 47/47/141 67/67/142 68/68/143 48/48/100
f 48/48/100 68/68/144 69/69/145 49/49/146
f 69/69/147 70/70/148 50/50/103 49/49/146
f 50/50/103 70/70/149 71/71/150 51/51/104
f 51/51/151 71/71/152 72/72/153 52/52/154
f 52/52/155 72/72/156 73/73/157 53/53/108
f 53/53/109 73/73/158 74/74/159 54/54/110
f 74/74/160 75/75/161 55/55/113 54/54/112
f 55/55/113 75/75/162 76/76/163 56/56/118
f 56/56/118 76/76/163 77/77/164 57/57/165
f 57/57/119 77/77/166 78/78/167 58/58/168
f 58/58/121 78/78/169 79/79/170 59/59/123
f 79/79/171 80/80/172 60/60/125 59/59/123
f 60/60/125 80/80/173 81/81/174 61/61/128
f 61/61/128 81/81/174 82/82/175 62/62/176
f 62/62/130 82/82/177 83/83/178 63/63/131
f 63/63/179 83/83/180 84/84/181 64/64/182
f 84/84/183 65/65/184 45/45/93 64/64/182
f 65/65/185 85/85/186 86/86/187 66/66/139
f 66/66/139 86/86/188 87/87/189 67/67/142
f 67/67/142 87/87/190 88/88/191 68/68/192
f 88/88/191 89/89/193 69/69/194 68/68/195
f 89/89/196 90/90/197 70/70/149 69/69/145
f 90/90/198 91/91/199 71/71/150 70/70/200
f 71/71/201 91/91/202 92/92/203 72/72/204
f 72/72/153 92/92/205 93/93/206 73/73/207
f 73/73/158 93/93/206 94/94/208 74/74/159
f 94/94/208 95/95/209 75/75/162 74/74/210
f 75/75/211 95/95/209 96/96/212 76/76/163
f 76/76/213 96/96/212 97/97/214 77/77/166
f 77/77/164 97/97/214 98/98/215 78/78/169
f 98/98/216 99/99/217 79/79/218 78/78/219
f 99/99/220 100/100/221 80/80/222 79/79/170
f 80/80/223 100/100/224 101/101/225 81/81/174
f 81/81/174 101/101/226 102/102/227 82/82/175
f 82/82/228 102/102/229 103/103/230 83/83/178
f 83/83/178 103/103/230 104/104/231 84/84/232
f 104/104/233 85/85/186 65/65/185 84/84/232
f 85/85/186 105/105/234 106/106/235 86/86/236
f 86/86/188 106/106/237 107/107/238 87/87/190
f 87/87/189 107/107/238 108/108/239 88/88/191
f 108/108/240 109/109/241 89/89/193 88/88/191
f 109/109/241 110/110/242 90/90/243 89/89/196
f 110/110/242 111/111/244 91/91/202 90/90/198
f 91/91/202 111/111/245 112/112/246 92/92/205
f 92/92/205 112/112/246 113/113/247 93/93/206
f 93/93/248 113/113/249 114/114/250 94/94/208
f 114/114/250 115/115/251 95/95/209 94/94/208
f 95/95/209 115/115/251 116/116/252 96/96/212
f 96/96/212 116/116/253 117/117/254 97/97/214
f 97/97/214 117/117/255 118/118/256 98/98/215
f 98/98/215 118/118/257 119/119/258 99/99/217
f 119/119/259 120/120/260 100/100/221 99/99/220
f 100/100/261 120/120/262 121/121/263 101/101/264
f 101/101/226 121/121/263 122/122/265 102/102/227
f 102/102/229 122/122/266 123/123/267 103/103/230
f 103/103/230 123/123/268 124/124/269 104/104/231
f 124/124/270 105/105/271 85/85/186 104/104/233
f 105/105/272 125/125/273 126/126/274 106/106/237
f 106/106/275 126/126/274 127/127/276 107/107/277
f 107/107/238 127/127/278 128/128/279 108/108/280
f 108/108/240 128/128/281 129/129/282 109/109/283
f 129/129/284 130/130/285 110/110/242 109/109/286
f 110/110/242 130/130/285 131/131/287 111/111/245
f 111/111/245 131/131/287 132/132/288 112/112/289
f 112/112/246 132/132/288 133/133/290 113/113/249
f 113/113/249 133/133/291 134/134/292 114/114/293
f 134/134/294 135/135/295 115/115/296 114/114/297
f 115/115/296 135/135/298 136/136/299 116/116/253
f 116/116/252 136/136/299 137/137/300 117/117/255
f 117/117/301 137/137/300 138/138/302 118/118/256
f 118/118/303 138/138/304 139/139/305 119/119/306
f 139/139/307 140/140/308 120/120/309 119/119/258
f 120/120/310 140/140/308 141/141/311 121/121/263
f 121/121/312 141/141/313 142/142/314 122/122/315
f 122/122/265 142/142/316 143/143/317 123/123/268
f 123/123/318 143/143/319 144/144/320 124/124/321
f 144/144/320 125/125/322 105/105/323 124/124/324
f 125/125/325 145/145/326 146/146/327 126/126/274
f 126/126/328 146/146/329 147/147/330 127/127/278
f 127/127/278 147/147/331 148/148/332 128/128/333
f 128/128/333 148/148/334 149/149/335 129/129/336
f 149/149/337 150/150/338 130/130/339 129/129/340
f 130/130/339 150/150/338 151/151/341 131/131/287
f 131/131/287 151/151/341 152/152/342 132/132/343
f 152/152/342 153/153/344 133/133/345 132/132/288
f 133/133/345 153/153/346 154/154/347 134/134/294
f 154/154/347 155/155/348 135/135/349 134/134/350
f 135/135/351 155/155/352 156/156/353 136/136/354
f 136/136/355 156/156/356 157/157/357 137/137/358
f 137/137/359 157/157/360 158/158/361 138/138/304
f 138/138/304 158/158/362 159/159/363 139/139/307
f 159/159/363 160/160/364 140/140/365 139/139/307
f 140/140/308 160/160/366 161/161/367 141/141/313
f 141/141/311 161/161/367 162/162/368 142/142/314
f 142/142/369 162/162/370 163/163/371 143/143/372
f 143/143/317 163/163/371 164/164/373 144/144/374
f 164/164/375 145/145/376 125/125/377 144/144/374
f 145/145/376 165/165/378 166/166/379 146/146/327
f 146/146/329 166/166/380 167/167/381 147/147/330
f 147/147/382 167/167/381 168/168/383 148/148/384
f 148/148/385 168/168/383 169/169/386 149/149/337
f 169/169/386 170/170/387 150/150/388 149/149/337
f 150/150/388 170/170/387 171/171/389 151/151/390
f 151/151/341 171/171/391 172/172/392 152/152/342
f 152/152/342 172/172/393 173/173/394 153/153/346
f 153/153/395 173/173/396 174/174/397 154/154/347
f 174/174/397 175/175/398 155/155/352 154/154/399
f 155/155/352 175/175/398 176/176/400 156/156/356
f 156/156/356 176/176/400 177/177/401 157/157/360
f 157/157/357 177/177/402 178/178/403 158/158/361
f 158/158/361 178/178/404 179/179/405 159/159/406
f 179/179/405 180/180/407 160/160/364 159/159/363
f 160/160/364 180/180/408 181/181/409 161/161/410
f 161/161/410 181/181/411 182/182/412 162/162/370
f 162/162/368 182/182/412 183/183/413 163/163/414
f 163/163/415 183/183/413 184/184/416 164/164/373
f 184/184/416 165/165/378 145/145/326 164/164/417
f 165/165/378 188/185/418 166/166/379
f 166/166/379 188/185/418 167/167/419
f 167/167/419 188/185/418 168/168/383
f 168/168/383 188/185/418 169/169/386
f 188/185/418 186/186/420 170/170/387 169/169/386
f 170/170/421 186/186/420 171/171/389
f 171/171/389 186/186/422 172/172/423
f 172/172/424 186/186/420 173/173/396
f 173/173/396 186/186/420 174/174/397
f 186/186/422 185/187/425 175/175/398 174/174/397
f 175/175/398 185/187/426 176/176/400
f 176/176/400 185/187/426 177/177/401
f 177/177/427 185/187/426 178/178/403
f 178/178/428 185/187/425 179/179/405
f 185/187/426 187/188/429 180/180/408 179/179/405
f 180/180/408 187/188/429 181/181/430
f 181/181/431 187/188/429 182/182/432
f 182/182/433 187/188/429 183/183/413
f 183/183/434 187/188/429 184/184/435
f 187/188/429 188/185/418 165/165/378 184/184/435
f 186/186/422 188/185/418 187/188/436 185/187/437
